<?xml version="1.0" encoding="UTF-8"?>
<!DOCTYPE svg PUBLIC "-//W3C//DTD SVG 1.1//EN" "http://www.w3.org/Graphics/SVG/1.1/DTD/svg11.dtd">
<!-- Creator: CorelDRAW X7 -->
<svg xmlns="http://www.w3.org/2000/svg" xml:space="preserve" width="210mm" height="297mm" version="1.1" style="shape-rendering:geometricPrecision; text-rendering:geometricPrecision; image-rendering:optimizeQuality; fill-rule:evenodd; clip-rule:evenodd"
viewBox="0 0 21000 29700"
 xmlns:xlink="http://www.w3.org/1999/xlink">
 <defs>
  <style type="text/css">
   <![CDATA[
    .fil0 {fill:black}
   ]]>
  </style>
 </defs>
 <g id="Layer_x0020_1">
  <metadata id="CorelCorpID_0Corel-Layer"/>
  <path class="fil0" d="M13753 3997l5 169c-142,1 -450,31 -450,31 -1004,125 -1941,849 -2388,1740 -175,348 -318,804 -318,1323l0 18444 -3360 0c30,-42 196,-178 253,-223 243,-189 284,-271 454,-445 202,-208 525,-699 626,-962 217,-566 232,-621 319,-1243 67,-482 -93,-158 220,-467 42,-41 64,-65 106,-107 264,-265 190,-193 403,-496 74,-104 107,-147 177,-273 783,-1405 643,-1739 643,-3458 0,-593 0,-1154 0,-1773l0 -9023c0,-638 145,-1035 362,-1465 349,-693 1215,-1425 1967,-1632 190,-52 669,-154 981,-140zm-3786 18240l339 614c25,42 36,59 58,101 3,8 23,52 25,55l18 34c2,4 6,11 10,17l0 -900c-290,0 -286,-165 -450,79zm-503 1033c209,0 397,-61 555,-160 67,-42 78,-62 160,-105 -28,-120 -254,-522 -344,-582 -116,496 -358,799 -371,847zm847 -1297l106 0c0,-253 27,-420 26,-688 0,-247 0,-494 0,-741l-22 31c-26,45 -7,7 -27,51 -15,31 -32,79 -45,114 -92,245 -133,365 -268,606 -115,207 -188,250 -126,371 59,114 202,256 356,256zm-1323 1402c674,-356 439,-691 820,-1217 48,-67 88,-92 133,-159 -32,-46 -89,-127 -133,-158 -80,53 -325,452 -544,619 -164,125 -175,138 -201,381 -17,151 -72,381 -75,534zm-503 1271c311,-73 769,-433 909,-759 84,-197 95,-374 123,-432 -356,0 -116,-85 -432,70 -292,143 -149,221 -405,733 -64,127 -165,258 -195,388zm1032 899l900 0 0 -926 -79 0c-234,0 -457,169 -576,297 -127,137 -245,374 -245,629zm159 -2117c0,593 -413,885 -529,1059l370 -27c190,0 300,19 451,28 217,12 263,-54 449,-54 0,-454 49,-878 -159,-1270 -232,122 -206,177 -582,264zm-1958 2117l1641 0c0,-603 265,-663 423,-899 -234,0 -524,-21 -715,25 -232,57 -360,83 -571,170 -240,100 -657,524 -778,704z"/>
 </g>
</svg>
